<?xml version="1.0" encoding="UTF-8"?>
<!-- Generator: Adobe Illustrator 22.0.1, SVG Export Plug-In . SVG Version: 6.00 Build 0)  -->
<svg version="1.1" id="Layer_1" xmlns="http://www.w3.org/2000/svg" xmlns:xlink="http://www.w3.org/1999/xlink" x="0px" y="0px" viewBox="0 0 459 211.5" style="enable-background:new 0 0 459 211.5;" xml:space="preserve">
<style type="text/css">
	.st0{fill:#484848;}
</style>
<g>
	<polygon class="st0" points="8.1,107.5 8.1,107.6 8.1,210.1 36.3,210.1 36.3,155.2 84.8,210.1 110.5,210.1 110.5,107.6 82.4,107.6    82.4,162.5 33.1,107.5  "/>
	<g>
		<path class="st0" d="M213,64.6V53.4V43.4h0c0,0,0,0,0,0V7.5l-27.6,0h-0.6v35.9v21.3c0,2.5-0.4,4.8-1.2,6.8c-1,2.6-2.7,4.9-5,6.9    c-4.3,3.7-10.6,5.9-16.9,5.9l0,0v0h0h0v0l0,0c-6.2,0-12.5-2.2-16.9-5.9c-2.3-2-4-4.3-5-6.9c-0.8-2.1-1.2-4.3-1.2-6.8V43.4V7.5    h-0.6l-27.6,0v35.9v0v10.1v11.2v6.8c0,22.7,24.5,40.7,49.9,41c0.3,0,0.5,0,0.8,0c0.1,0,0.2,0,0.3,0c0.1,0,0.1,0,0.2,0c0,0,0,0,0,0    c0,0,0,0,0,0c0,0,0,0,0,0l0,0c0.1,0,0.1,0,0.2,0c0.1,0,0.2,0,0.3,0c0.3,0,0.5,0,0.8,0c25.4-0.4,49.9-17.8,49.9-41h0V64.6z"/>
		<path class="st0" d="M79.9,71.5C75.3,79,67.2,84.1,57.9,84.3c-0.1,0-0.2,0-0.4,0c-14.5,0-26.2-12-26.2-26.9    c0-14.8,11.7-26.9,26.2-26.9c0.1,0,0.2,0,0.4,0c9.3,0.1,17.4,5.2,21.9,12.8h30.7c0-23.1-24.3-40.6-49.7-41c-0.1,0-0.1,0-0.2,0    c-0.3,0-0.5,0-0.8,0c-0.1,0-0.2,0-0.3,0c-0.1,0-0.1,0-0.2,0l0,0c0,0,0,0,0,0c0,0,0,0,0,0c0,0,0,0,0,0v0c-0.1,0-0.1,0-0.2,0    c-0.1,0-0.2,0-0.3,0c-0.3,0-0.5,0-0.8,0H56c-20.2,0-37.8,10.8-47.4,27c-4.9,8.2-7.7,17.8-7.7,28.1v0v0c0,10.2,2.8,19.8,7.7,28.1    c9.6,16.2,27.2,27,47.4,27H58c0.3,0,0.5,0,0.8,0c0.1,0,0.2,0,0.3,0c0.1,0,0.1,0,0.2,0v0c0,0,0,0,0,0c0,0,0,0,0,0c0,0,0,0,0,0l0,0    c0.1,0,0.1,0,0.2,0c0.1,0,0.2,0,0.3,0c0.3,0,0.5,0,0.8,0c0.1,0,0.1,0,0.2,0c25.4-0.4,49.7-17.9,49.7-41H79.9z"/>
	</g>
	<polygon class="st0" points="184.8,107.6 161.8,154.6 138.7,107.6 110.6,107.6 147.7,183.4 147.7,210.1 175.9,210.1 175.9,183.4    213,107.6  "/>
</g>
</svg>